<svg width="700" height="400" viewBox="0 0 700 400" fill="none" xmlns="http://www.w3.org/2000/svg">
<g clip-path="url(#clip0_6_2)">
<rect width="700" height="400" fill="#00A3FF"/>
<g filter="url(#filter0_d_6_2)">
<rect x="82" y="42" width="521" height="168" rx="50" fill="#54FF7A"/>
<rect x="135" y="-25" width="309" height="100" rx="20" fill="#54FF7A"/>
<rect x="53" y="120" width="280" height="225" rx="50" fill="#54FF7A"/>
<rect x="280" y="154" width="367" height="156" rx="30" fill="#54FF7A"/>
</g>
<path fill-rule="evenodd" clip-rule="evenodd" d="M85.9067 236.853C84.8845 234.382 81.3849 234.382 80.3626 236.853L66.231 271.006C65.4138 272.982 66.8655 275.153 69.0031 275.153H97.2662C97.7014 275.153 98.1081 275.063 98.473 274.903H114.431C116.768 274.903 118.207 272.349 116.997 270.35L103.701 248.391C102.533 246.463 99.736 246.463 98.5685 248.391L93.8828 256.13L85.9067 236.853Z" fill="#00E232"/>
<path fill-rule="evenodd" clip-rule="evenodd" d="M134.595 224.853C133.573 222.382 130.073 222.382 129.051 224.853L121.231 243.753C120.414 245.728 121.866 247.9 124.003 247.9H139.643C139.994 247.9 140.327 247.841 140.634 247.734H150.706C153.043 247.734 154.483 245.18 153.272 243.18L146.288 231.646C145.12 229.718 142.323 229.718 141.155 231.646L138.928 235.324L134.595 224.853Z" fill="#00E232"/>
<path fill-rule="evenodd" clip-rule="evenodd" d="M202.529 193.853C203.551 191.382 207.05 191.382 208.073 193.853L222.204 228.006C223.022 229.982 221.57 232.153 219.432 232.153H191.169C190.734 232.153 190.327 232.063 189.962 231.903H174.005C171.667 231.903 170.228 229.349 171.439 227.35L184.734 205.391C185.902 203.463 188.699 203.463 189.867 205.391L194.552 213.13L202.529 193.853Z" fill="#00E232"/>
<path fill-rule="evenodd" clip-rule="evenodd" d="M145.595 191.853C144.573 189.382 141.073 189.382 140.051 191.853L132.231 210.753C131.414 212.728 132.866 214.9 135.003 214.9H150.643C150.994 214.9 151.327 214.841 151.634 214.734H161.706C164.043 214.734 165.483 212.18 164.272 210.18L157.288 198.646C156.12 196.718 153.323 196.718 152.155 198.646L149.928 202.324L145.595 191.853Z" fill="#00E232"/>
<path fill-rule="evenodd" clip-rule="evenodd" d="M189.907 142.853C188.884 140.382 185.385 140.382 184.363 142.853L170.231 177.006C169.414 178.982 170.866 181.153 173.003 181.153H201.266C201.701 181.153 202.108 181.063 202.473 180.903H218.431C220.768 180.903 222.207 178.349 220.997 176.35L207.701 154.391C206.533 152.463 203.736 152.463 202.568 154.391L197.883 162.13L189.907 142.853Z" fill="#00E232"/>
<path fill-rule="evenodd" clip-rule="evenodd" d="M246.595 145.853C245.573 143.382 242.073 143.382 241.051 145.853L233.231 164.753C232.414 166.728 233.866 168.9 236.003 168.9H251.643C251.994 168.9 252.327 168.841 252.634 168.734H262.706C265.043 168.734 266.483 166.18 265.272 164.18L258.288 152.646C257.12 150.718 254.323 150.718 253.155 152.646L250.928 156.324L246.595 145.853Z" fill="#00E232"/>
<path fill-rule="evenodd" clip-rule="evenodd" d="M306.182 97.853C305.16 95.3823 301.66 95.3823 300.638 97.853L286.506 132.006C285.689 133.982 287.141 136.153 289.278 136.153H317.542C317.977 136.153 318.383 136.063 318.748 135.903H334.706C337.043 135.903 338.483 133.349 337.272 131.35L323.976 109.391C322.809 107.463 320.011 107.463 318.844 109.391L314.158 117.13L306.182 97.853Z" fill="#00E232"/>
<path fill-rule="evenodd" clip-rule="evenodd" d="M380.529 105.853C381.551 103.382 385.05 103.382 386.073 105.853L400.204 140.006C401.022 141.982 399.57 144.153 397.432 144.153H369.169C368.734 144.153 368.327 144.063 367.962 143.903H352.005C349.667 143.903 348.228 141.349 349.439 139.35L362.734 117.391C363.902 115.463 366.699 115.463 367.867 117.391L372.552 125.13L380.529 105.853Z" fill="#00E232"/>
<path fill-rule="evenodd" clip-rule="evenodd" d="M268.116 105.853C269.138 103.382 272.637 103.382 273.66 105.853L281.48 124.753C282.297 126.728 280.845 128.9 278.708 128.9H263.068C262.716 128.9 262.384 128.841 262.077 128.734H252.005C249.667 128.734 248.228 126.18 249.439 124.18L256.423 112.646C257.59 110.718 260.388 110.718 261.555 112.646L263.783 116.324L268.116 105.853Z" fill="#00E232"/>
<path fill-rule="evenodd" clip-rule="evenodd" d="M425.595 97.853C424.573 95.3823 421.073 95.3823 420.051 97.853L412.231 116.753C411.414 118.728 412.866 120.9 415.003 120.9H430.643C430.994 120.9 431.327 120.841 431.634 120.734H441.706C444.043 120.734 445.483 118.18 444.272 116.18L437.288 104.646C436.12 102.718 433.323 102.718 432.155 104.646L429.928 108.324L425.595 97.853Z" fill="#00E232"/>
<g filter="url(#filter1_d_6_2)">
<path fill-rule="evenodd" clip-rule="evenodd" d="M140.5 51C132.492 51 126 57.4919 126 65.5C126 65.6673 126.003 65.834 126.008 66H117.5C112.253 66 108 70.2533 108 75.5C108 80.7467 112.253 85 117.5 85H179.5C184.747 85 189 80.7467 189 75.5C189 70.418 185.01 66.268 179.991 66.0125C179.997 65.8424 180 65.6715 180 65.5C180 57.4919 173.508 51 165.5 51H140.5Z" fill="white"/>
</g>
<g filter="url(#filter2_d_6_2)">
<path fill-rule="evenodd" clip-rule="evenodd" d="M290.5 62C282.492 62 276 68.4919 276 76.5C276 76.6673 276.003 76.834 276.008 77H267.5C262.253 77 258 81.2533 258 86.5C258 91.7467 262.253 96 267.5 96H329.5C334.747 96 339 91.7467 339 86.5C339 81.418 335.01 77.268 329.991 77.0125C329.997 76.8424 330 76.6715 330 76.5C330 68.4919 323.508 62 315.5 62H290.5Z" fill="white"/>
</g>
<g filter="url(#filter3_d_6_2)">
<path fill-rule="evenodd" clip-rule="evenodd" d="M582.5 51C574.492 51 568 57.4919 568 65.5C568 65.6673 568.003 65.834 568.008 66H559.5C554.253 66 550 70.2533 550 75.5C550 80.7467 554.253 85 559.5 85H621.5C626.747 85 631 80.7467 631 75.5C631 70.418 627.01 66.268 621.991 66.0125C621.997 65.8424 622 65.6715 622 65.5C622 57.4919 615.508 51 607.5 51H582.5Z" fill="white"/>
</g>
<g filter="url(#filter4_d_6_2)">
<path fill-rule="evenodd" clip-rule="evenodd" d="M191.88 160.958C191.59 160.986 191.297 161 191 161H147C142.029 161 138 156.971 138 152C138 147.029 142.029 143 147 143H157.008C157.272 135.223 163.659 129 171.5 129H196.5C204.508 129 211 135.492 211 143.5C211 146.675 209.98 149.612 208.249 152H217.5C219.985 152 222 154.015 222 156.5C222 158.985 219.985 161 217.5 161H192.5C192.289 161 192.082 160.986 191.88 160.958Z" fill="white"/>
</g>
<g filter="url(#filter5_d_6_2)">
<path fill-rule="evenodd" clip-rule="evenodd" d="M654.5 186C662.508 186 669 192.492 669 200.5C669 200.667 668.997 200.834 668.992 201H677.5C682.747 201 687 205.253 687 210.5C687 215.747 682.747 220 677.5 220H615.5C610.253 220 606 215.747 606 210.5C606 205.418 609.99 201.268 615.009 201.012C615.003 200.842 615 200.672 615 200.5C615 192.492 621.492 186 629.5 186H654.5Z" fill="white"/>
</g>
<g filter="url(#filter6_d_6_2)">
<path fill-rule="evenodd" clip-rule="evenodd" d="M549.12 280.958C549.41 280.986 549.703 281 550 281H594C598.971 281 603 276.971 603 272C603 267.029 598.971 263 594 263H583.992C583.728 255.223 577.341 249 569.5 249H544.5C536.492 249 530 255.492 530 263.5C530 266.675 531.02 269.612 532.751 272H523.5C521.015 272 519 274.015 519 276.5C519 278.985 521.015 281 523.5 281H548.5C548.711 281 548.918 280.986 549.12 280.958Z" fill="white"/>
</g>
<g filter="url(#filter7_d_6_2)">
<path fill-rule="evenodd" clip-rule="evenodd" d="M507.12 136.958C507.41 136.986 507.703 137 508 137H552C556.971 137 561 132.971 561 128C561 123.029 556.971 119 552 119H541.992C541.728 111.223 535.341 105 527.5 105H502.5C494.492 105 488 111.492 488 119.5C488 122.675 489.02 125.612 490.751 128H481.5C479.015 128 477 130.015 477 132.5C477 134.985 479.015 137 481.5 137H506.5C506.711 137 506.918 136.986 507.12 136.958Z" fill="white"/>
</g>
<g filter="url(#filter8_d_6_2)">
<path fill-rule="evenodd" clip-rule="evenodd" d="M70.1205 360.958C70.4099 360.986 70.7033 361 71 361H115C119.971 361 124 356.971 124 352C124 347.029 119.971 343 115 343H104.992C104.728 335.223 98.3408 329 90.5 329H65.5C57.4919 329 51 335.492 51 343.5C51 346.675 52.0205 349.612 53.7514 352H44.5C42.0147 352 40 354.015 40 356.5C40 358.985 42.0147 361 44.5 361H69.5C69.7105 361 69.9177 360.986 70.1205 360.958Z" fill="white"/>
</g>
<g filter="url(#filter9_d_6_2)">
<path fill-rule="evenodd" clip-rule="evenodd" d="M288 210C282.477 210 278 214.477 278 220V249.315C278 254.838 282.477 259.315 288 259.315H294.483L302.948 273.02C304.12 274.918 306.88 274.918 308.053 273.02L316.517 259.315H323C328.523 259.315 333 254.838 333 249.315V220C333 214.477 328.523 210 323 210H288Z" fill="white"/>
</g>
<path d="M300.507 237.896C300.507 237.288 300.292 236.822 299.862 236.5C299.433 236.171 298.659 235.827 297.542 235.469C296.425 235.104 295.54 234.745 294.889 234.395C293.113 233.435 292.225 232.142 292.225 230.517C292.225 229.672 292.461 228.92 292.934 228.261C293.413 227.595 294.097 227.076 294.985 226.703C295.881 226.331 296.883 226.145 297.993 226.145C299.11 226.145 300.106 226.349 300.979 226.757C301.853 227.158 302.53 227.727 303.01 228.465C303.497 229.202 303.74 230.04 303.74 230.979H300.518C300.518 230.262 300.292 229.707 299.841 229.313C299.39 228.912 298.756 228.712 297.939 228.712C297.152 228.712 296.539 228.88 296.103 229.217C295.666 229.546 295.447 229.983 295.447 230.527C295.447 231.036 295.701 231.462 296.21 231.806C296.726 232.149 297.481 232.472 298.477 232.772C300.31 233.324 301.646 234.008 302.483 234.824C303.321 235.641 303.74 236.658 303.74 237.875C303.74 239.229 303.228 240.292 302.204 241.065C301.18 241.832 299.801 242.215 298.068 242.215C296.865 242.215 295.77 241.996 294.781 241.56C293.793 241.116 293.037 240.51 292.515 239.744C291.999 238.978 291.741 238.09 291.741 237.08H294.975C294.975 238.806 296.006 239.669 298.068 239.669C298.835 239.669 299.433 239.515 299.862 239.207C300.292 238.892 300.507 238.455 300.507 237.896ZM318.307 240.023C317.727 240.718 316.907 241.259 315.847 241.646C314.787 242.025 313.612 242.215 312.323 242.215C310.97 242.215 309.781 241.921 308.757 241.334C307.74 240.74 306.952 239.88 306.394 238.756C305.842 237.632 305.559 236.31 305.545 234.792V233.729C305.545 232.167 305.806 230.817 306.329 229.679C306.859 228.533 307.618 227.659 308.606 227.058C309.602 226.449 310.766 226.145 312.098 226.145C313.952 226.145 315.403 226.589 316.448 227.477C317.494 228.357 318.113 229.643 318.307 231.333H315.17C315.027 230.438 314.708 229.783 314.214 229.367C313.727 228.952 313.054 228.744 312.194 228.744C311.099 228.744 310.264 229.156 309.691 229.979C309.118 230.803 308.828 232.028 308.821 233.653V234.652C308.821 236.292 309.133 237.531 309.756 238.369C310.379 239.207 311.292 239.626 312.495 239.626C313.705 239.626 314.568 239.368 315.084 238.853V236.156H312.151V233.782H318.307V240.023Z" fill="black"/>
<g filter="url(#filter10_d_6_2)">
<path fill-rule="evenodd" clip-rule="evenodd" d="M330 223C324.477 223 320 227.477 320 233V262.315C320 267.838 324.477 272.315 330 272.315H336.483L344.948 286.02C346.12 287.918 348.88 287.918 350.053 286.02L358.517 272.315H365C370.523 272.315 375 267.838 375 262.315V233C375 227.477 370.523 223 365 223H330Z" fill="white"/>
</g>
<path d="M345.771 253.023C345.191 253.718 344.371 254.259 343.312 254.646C342.252 255.025 341.077 255.215 339.788 255.215C338.435 255.215 337.246 254.921 336.222 254.334C335.205 253.74 334.417 252.88 333.858 251.756C333.307 250.632 333.024 249.31 333.01 247.792V246.729C333.01 245.167 333.271 243.817 333.794 242.679C334.324 241.533 335.083 240.659 336.071 240.058C337.067 239.449 338.23 239.145 339.562 239.145C341.417 239.145 342.868 239.589 343.913 240.477C344.959 241.357 345.578 242.643 345.771 244.333H342.635C342.492 243.438 342.173 242.783 341.679 242.367C341.192 241.952 340.519 241.744 339.659 241.744C338.563 241.744 337.729 242.156 337.156 242.979C336.583 243.803 336.293 245.028 336.286 246.653V247.652C336.286 249.292 336.598 250.531 337.221 251.369C337.844 252.207 338.757 252.626 339.96 252.626C341.17 252.626 342.033 252.368 342.549 251.853V249.156H339.616V246.782H345.771V253.023ZM361.122 255H357.899V248.297H351.615V255H348.393V239.359H351.615V245.697H357.899V239.359H361.122V255Z" fill="black"/>
<g filter="url(#filter11_d_6_2)">
<path fill-rule="evenodd" clip-rule="evenodd" d="M373 235C367.477 235 363 239.477 363 245V274.315C363 279.838 367.477 284.315 373 284.315H379.483L387.948 298.02C389.12 299.918 391.88 299.918 393.053 298.02L401.517 284.315H408C413.523 284.315 418 279.838 418 274.315V245C418 239.477 413.523 235 408 235H373Z" fill="white"/>
</g>
<path d="M376.396 267V251.359H381.875C383.773 251.359 385.212 251.725 386.193 252.455C387.174 253.178 387.665 254.242 387.665 255.646C387.665 256.412 387.468 257.089 387.074 257.676C386.68 258.256 386.132 258.682 385.431 258.954C386.233 259.155 386.863 259.559 387.321 260.168C387.787 260.777 388.02 261.521 388.02 262.402C388.02 263.906 387.54 265.045 386.58 265.818C385.62 266.592 384.253 266.986 382.477 267H376.396ZM379.619 260.189V264.411H382.38C383.139 264.411 383.73 264.232 384.152 263.874C384.582 263.509 384.797 263.007 384.797 262.37C384.797 260.938 384.056 260.211 382.573 260.189H379.619ZM379.619 257.912H382.004C383.63 257.883 384.442 257.235 384.442 255.968C384.442 255.259 384.235 254.75 383.819 254.442C383.411 254.127 382.763 253.97 381.875 253.97H379.619V257.912ZM403.166 267H399.943L393.67 256.709V267H390.447V251.359H393.67L399.954 261.672V251.359H403.166V267Z" fill="black"/>
<g filter="url(#filter12_d_6_2)">
<path fill-rule="evenodd" clip-rule="evenodd" d="M415 249C409.477 249 405 253.477 405 259V288.315C405 293.838 409.477 298.315 415 298.315H421.483L429.948 312.02C431.12 313.918 433.88 313.918 435.053 312.02L443.517 298.315H450C455.523 298.315 460 293.838 460 288.315V259C460 253.477 455.523 249 450 249H415Z" fill="white"/>
</g>
<path d="M425.176 277.122L428.721 265.359H432.309L426.862 281H423.5L418.075 265.359H421.652L425.176 277.122ZM433.791 281V265.359H439.27C441.167 265.359 442.607 265.725 443.588 266.455C444.569 267.178 445.06 268.242 445.06 269.646C445.06 270.412 444.863 271.089 444.469 271.676C444.075 272.256 443.527 272.682 442.825 272.954C443.627 273.155 444.257 273.559 444.716 274.168C445.181 274.777 445.414 275.521 445.414 276.402C445.414 277.906 444.934 279.045 443.975 279.818C443.015 280.592 441.647 280.986 439.871 281H433.791ZM437.014 274.189V278.411H439.774C440.534 278.411 441.124 278.232 441.547 277.874C441.977 277.509 442.191 277.007 442.191 276.37C442.191 274.938 441.45 274.211 439.968 274.189H437.014ZM437.014 271.912H439.398C441.024 271.883 441.837 271.235 441.837 269.968C441.837 269.259 441.629 268.75 441.214 268.442C440.806 268.127 440.158 267.97 439.27 267.97H437.014V271.912Z" fill="black"/>
</g>
<defs>
<filter id="filter0_d_6_2" x="49" y="-25" width="602" height="378" filterUnits="userSpaceOnUse" color-interpolation-filters="sRGB">
<feFlood flood-opacity="0" result="BackgroundImageFix"/>
<feColorMatrix in="SourceAlpha" type="matrix" values="0 0 0 0 0 0 0 0 0 0 0 0 0 0 0 0 0 0 127 0" result="hardAlpha"/>
<feOffset dy="4"/>
<feGaussianBlur stdDeviation="2"/>
<feComposite in2="hardAlpha" operator="out"/>
<feColorMatrix type="matrix" values="0 0 0 0 0 0 0 0 0 0 0 0 0 0 0 0 0 0 0.25 0"/>
<feBlend mode="normal" in2="BackgroundImageFix" result="effect1_dropShadow_6_2"/>
<feBlend mode="normal" in="SourceGraphic" in2="effect1_dropShadow_6_2" result="shape"/>
</filter>
<filter id="filter1_d_6_2" x="104" y="48" width="89" height="42" filterUnits="userSpaceOnUse" color-interpolation-filters="sRGB">
<feFlood flood-opacity="0" result="BackgroundImageFix"/>
<feColorMatrix in="SourceAlpha" type="matrix" values="0 0 0 0 0 0 0 0 0 0 0 0 0 0 0 0 0 0 127 0" result="hardAlpha"/>
<feOffset dy="1"/>
<feGaussianBlur stdDeviation="2"/>
<feComposite in2="hardAlpha" operator="out"/>
<feColorMatrix type="matrix" values="0 0 0 0 0 0 0 0 0 0 0 0 0 0 0 0 0 0 0.25 0"/>
<feBlend mode="normal" in2="BackgroundImageFix" result="effect1_dropShadow_6_2"/>
<feBlend mode="normal" in="SourceGraphic" in2="effect1_dropShadow_6_2" result="shape"/>
</filter>
<filter id="filter2_d_6_2" x="254" y="59" width="89" height="42" filterUnits="userSpaceOnUse" color-interpolation-filters="sRGB">
<feFlood flood-opacity="0" result="BackgroundImageFix"/>
<feColorMatrix in="SourceAlpha" type="matrix" values="0 0 0 0 0 0 0 0 0 0 0 0 0 0 0 0 0 0 127 0" result="hardAlpha"/>
<feOffset dy="1"/>
<feGaussianBlur stdDeviation="2"/>
<feComposite in2="hardAlpha" operator="out"/>
<feColorMatrix type="matrix" values="0 0 0 0 0 0 0 0 0 0 0 0 0 0 0 0 0 0 0.25 0"/>
<feBlend mode="normal" in2="BackgroundImageFix" result="effect1_dropShadow_6_2"/>
<feBlend mode="normal" in="SourceGraphic" in2="effect1_dropShadow_6_2" result="shape"/>
</filter>
<filter id="filter3_d_6_2" x="546" y="48" width="89" height="42" filterUnits="userSpaceOnUse" color-interpolation-filters="sRGB">
<feFlood flood-opacity="0" result="BackgroundImageFix"/>
<feColorMatrix in="SourceAlpha" type="matrix" values="0 0 0 0 0 0 0 0 0 0 0 0 0 0 0 0 0 0 127 0" result="hardAlpha"/>
<feOffset dy="1"/>
<feGaussianBlur stdDeviation="2"/>
<feComposite in2="hardAlpha" operator="out"/>
<feColorMatrix type="matrix" values="0 0 0 0 0 0 0 0 0 0 0 0 0 0 0 0 0 0 0.25 0"/>
<feBlend mode="normal" in2="BackgroundImageFix" result="effect1_dropShadow_6_2"/>
<feBlend mode="normal" in="SourceGraphic" in2="effect1_dropShadow_6_2" result="shape"/>
</filter>
<filter id="filter4_d_6_2" x="134" y="126" width="92" height="40" filterUnits="userSpaceOnUse" color-interpolation-filters="sRGB">
<feFlood flood-opacity="0" result="BackgroundImageFix"/>
<feColorMatrix in="SourceAlpha" type="matrix" values="0 0 0 0 0 0 0 0 0 0 0 0 0 0 0 0 0 0 127 0" result="hardAlpha"/>
<feOffset dy="1"/>
<feGaussianBlur stdDeviation="2"/>
<feComposite in2="hardAlpha" operator="out"/>
<feColorMatrix type="matrix" values="0 0 0 0 0 0 0 0 0 0 0 0 0 0 0 0 0 0 0.25 0"/>
<feBlend mode="normal" in2="BackgroundImageFix" result="effect1_dropShadow_6_2"/>
<feBlend mode="normal" in="SourceGraphic" in2="effect1_dropShadow_6_2" result="shape"/>
</filter>
<filter id="filter5_d_6_2" x="602" y="183" width="89" height="42" filterUnits="userSpaceOnUse" color-interpolation-filters="sRGB">
<feFlood flood-opacity="0" result="BackgroundImageFix"/>
<feColorMatrix in="SourceAlpha" type="matrix" values="0 0 0 0 0 0 0 0 0 0 0 0 0 0 0 0 0 0 127 0" result="hardAlpha"/>
<feOffset dy="1"/>
<feGaussianBlur stdDeviation="2"/>
<feComposite in2="hardAlpha" operator="out"/>
<feColorMatrix type="matrix" values="0 0 0 0 0 0 0 0 0 0 0 0 0 0 0 0 0 0 0.25 0"/>
<feBlend mode="normal" in2="BackgroundImageFix" result="effect1_dropShadow_6_2"/>
<feBlend mode="normal" in="SourceGraphic" in2="effect1_dropShadow_6_2" result="shape"/>
</filter>
<filter id="filter6_d_6_2" x="515" y="246" width="92" height="40" filterUnits="userSpaceOnUse" color-interpolation-filters="sRGB">
<feFlood flood-opacity="0" result="BackgroundImageFix"/>
<feColorMatrix in="SourceAlpha" type="matrix" values="0 0 0 0 0 0 0 0 0 0 0 0 0 0 0 0 0 0 127 0" result="hardAlpha"/>
<feOffset dy="1"/>
<feGaussianBlur stdDeviation="2"/>
<feComposite in2="hardAlpha" operator="out"/>
<feColorMatrix type="matrix" values="0 0 0 0 0 0 0 0 0 0 0 0 0 0 0 0 0 0 0.25 0"/>
<feBlend mode="normal" in2="BackgroundImageFix" result="effect1_dropShadow_6_2"/>
<feBlend mode="normal" in="SourceGraphic" in2="effect1_dropShadow_6_2" result="shape"/>
</filter>
<filter id="filter7_d_6_2" x="473" y="102" width="92" height="40" filterUnits="userSpaceOnUse" color-interpolation-filters="sRGB">
<feFlood flood-opacity="0" result="BackgroundImageFix"/>
<feColorMatrix in="SourceAlpha" type="matrix" values="0 0 0 0 0 0 0 0 0 0 0 0 0 0 0 0 0 0 127 0" result="hardAlpha"/>
<feOffset dy="1"/>
<feGaussianBlur stdDeviation="2"/>
<feComposite in2="hardAlpha" operator="out"/>
<feColorMatrix type="matrix" values="0 0 0 0 0 0 0 0 0 0 0 0 0 0 0 0 0 0 0.25 0"/>
<feBlend mode="normal" in2="BackgroundImageFix" result="effect1_dropShadow_6_2"/>
<feBlend mode="normal" in="SourceGraphic" in2="effect1_dropShadow_6_2" result="shape"/>
</filter>
<filter id="filter8_d_6_2" x="36" y="326" width="92" height="40" filterUnits="userSpaceOnUse" color-interpolation-filters="sRGB">
<feFlood flood-opacity="0" result="BackgroundImageFix"/>
<feColorMatrix in="SourceAlpha" type="matrix" values="0 0 0 0 0 0 0 0 0 0 0 0 0 0 0 0 0 0 127 0" result="hardAlpha"/>
<feOffset dy="1"/>
<feGaussianBlur stdDeviation="2"/>
<feComposite in2="hardAlpha" operator="out"/>
<feColorMatrix type="matrix" values="0 0 0 0 0 0 0 0 0 0 0 0 0 0 0 0 0 0 0.25 0"/>
<feBlend mode="normal" in2="BackgroundImageFix" result="effect1_dropShadow_6_2"/>
<feBlend mode="normal" in="SourceGraphic" in2="effect1_dropShadow_6_2" result="shape"/>
</filter>
<filter id="filter9_d_6_2" x="274" y="210" width="63" height="72.4431" filterUnits="userSpaceOnUse" color-interpolation-filters="sRGB">
<feFlood flood-opacity="0" result="BackgroundImageFix"/>
<feColorMatrix in="SourceAlpha" type="matrix" values="0 0 0 0 0 0 0 0 0 0 0 0 0 0 0 0 0 0 127 0" result="hardAlpha"/>
<feOffset dy="4"/>
<feGaussianBlur stdDeviation="2"/>
<feComposite in2="hardAlpha" operator="out"/>
<feColorMatrix type="matrix" values="0 0 0 0 0 0 0 0 0 0 0 0 0 0 0 0 0 0 0.25 0"/>
<feBlend mode="normal" in2="BackgroundImageFix" result="effect1_dropShadow_6_2"/>
<feBlend mode="normal" in="SourceGraphic" in2="effect1_dropShadow_6_2" result="shape"/>
</filter>
<filter id="filter10_d_6_2" x="316" y="223" width="63" height="72.4431" filterUnits="userSpaceOnUse" color-interpolation-filters="sRGB">
<feFlood flood-opacity="0" result="BackgroundImageFix"/>
<feColorMatrix in="SourceAlpha" type="matrix" values="0 0 0 0 0 0 0 0 0 0 0 0 0 0 0 0 0 0 127 0" result="hardAlpha"/>
<feOffset dy="4"/>
<feGaussianBlur stdDeviation="2"/>
<feComposite in2="hardAlpha" operator="out"/>
<feColorMatrix type="matrix" values="0 0 0 0 0 0 0 0 0 0 0 0 0 0 0 0 0 0 0.25 0"/>
<feBlend mode="normal" in2="BackgroundImageFix" result="effect1_dropShadow_6_2"/>
<feBlend mode="normal" in="SourceGraphic" in2="effect1_dropShadow_6_2" result="shape"/>
</filter>
<filter id="filter11_d_6_2" x="359" y="235" width="63" height="72.4431" filterUnits="userSpaceOnUse" color-interpolation-filters="sRGB">
<feFlood flood-opacity="0" result="BackgroundImageFix"/>
<feColorMatrix in="SourceAlpha" type="matrix" values="0 0 0 0 0 0 0 0 0 0 0 0 0 0 0 0 0 0 127 0" result="hardAlpha"/>
<feOffset dy="4"/>
<feGaussianBlur stdDeviation="2"/>
<feComposite in2="hardAlpha" operator="out"/>
<feColorMatrix type="matrix" values="0 0 0 0 0 0 0 0 0 0 0 0 0 0 0 0 0 0 0.25 0"/>
<feBlend mode="normal" in2="BackgroundImageFix" result="effect1_dropShadow_6_2"/>
<feBlend mode="normal" in="SourceGraphic" in2="effect1_dropShadow_6_2" result="shape"/>
</filter>
<filter id="filter12_d_6_2" x="401" y="249" width="63" height="72.4431" filterUnits="userSpaceOnUse" color-interpolation-filters="sRGB">
<feFlood flood-opacity="0" result="BackgroundImageFix"/>
<feColorMatrix in="SourceAlpha" type="matrix" values="0 0 0 0 0 0 0 0 0 0 0 0 0 0 0 0 0 0 127 0" result="hardAlpha"/>
<feOffset dy="4"/>
<feGaussianBlur stdDeviation="2"/>
<feComposite in2="hardAlpha" operator="out"/>
<feColorMatrix type="matrix" values="0 0 0 0 0 0 0 0 0 0 0 0 0 0 0 0 0 0 0.25 0"/>
<feBlend mode="normal" in2="BackgroundImageFix" result="effect1_dropShadow_6_2"/>
<feBlend mode="normal" in="SourceGraphic" in2="effect1_dropShadow_6_2" result="shape"/>
</filter>
<clipPath id="clip0_6_2">
<rect width="700" height="400" fill="white"/>
</clipPath>
</defs>
</svg>
